<mxfile host="app.diagrams.net" modified="2023-09-17T09:29:35.683Z" agent="Mozilla/5.0 (Windows NT 10.0; Win64; x64) AppleWebKit/537.36 (KHTML, like Gecko) Chrome/116.0.0.0 Safari/537.36" etag="Oi3EeinHbo8WqhM1NWqp" version="21.7.5" type="device" pages="4">
  <diagram name="Page-1" id="03018318-947c-dd8e-b7a3-06fadd420f32">
    <mxGraphModel dx="1647" dy="888" grid="1" gridSize="10" guides="1" tooltips="1" connect="1" arrows="1" fold="1" page="1" pageScale="1" pageWidth="1100" pageHeight="850" background="none" math="0" shadow="0">
      <root>
        <mxCell id="0" />
        <mxCell id="1" parent="0" />
        <mxCell id="hHs4LufjNupMnScNQm0d-15" value="" style="rounded=0;whiteSpace=wrap;html=1;fillColor=#dae8fc;strokeColor=#6c8ebf;movable=0;resizable=0;rotatable=0;deletable=0;editable=0;locked=1;connectable=0;" parent="1" vertex="1">
          <mxGeometry x="350" y="90" width="400" height="660" as="geometry" />
        </mxCell>
        <mxCell id="hHs4LufjNupMnScNQm0d-1" value="" style="verticalLabelPosition=bottom;verticalAlign=top;html=1;shadow=0;dashed=0;strokeWidth=1;shape=mxgraph.android.phone2;strokeColor=#c0c0c0;" parent="1" vertex="1">
          <mxGeometry x="340" y="40" width="420" height="770" as="geometry" />
        </mxCell>
        <mxCell id="hHs4LufjNupMnScNQm0d-2" value="" style="rounded=1;whiteSpace=wrap;html=1;" parent="1" vertex="1">
          <mxGeometry x="380" y="530" width="340" height="90" as="geometry" />
        </mxCell>
        <mxCell id="hHs4LufjNupMnScNQm0d-3" value="" style="rounded=1;whiteSpace=wrap;html=1;" parent="1" vertex="1">
          <mxGeometry x="380" y="640" width="70" height="70" as="geometry" />
        </mxCell>
        <mxCell id="hHs4LufjNupMnScNQm0d-4" value="" style="rounded=1;whiteSpace=wrap;html=1;" parent="1" vertex="1">
          <mxGeometry x="470" y="640" width="70" height="70" as="geometry" />
        </mxCell>
        <mxCell id="hHs4LufjNupMnScNQm0d-5" value="" style="rounded=1;whiteSpace=wrap;html=1;" parent="1" vertex="1">
          <mxGeometry x="560" y="640" width="70" height="70" as="geometry" />
        </mxCell>
        <mxCell id="hHs4LufjNupMnScNQm0d-6" value="" style="rounded=1;whiteSpace=wrap;html=1;" parent="1" vertex="1">
          <mxGeometry x="650" y="640" width="70" height="70" as="geometry" />
        </mxCell>
        <mxCell id="hHs4LufjNupMnScNQm0d-7" value="26% Precipitation" style="rounded=1;whiteSpace=wrap;html=1;fillColor=none;strokeColor=none;fontSize=17;" parent="1" vertex="1">
          <mxGeometry x="385" y="490" width="180" height="30" as="geometry" />
        </mxCell>
        <mxCell id="hHs4LufjNupMnScNQm0d-13" value="`" style="html=1;verticalLabelPosition=bottom;align=center;labelBackgroundColor=#ffffff;verticalAlign=top;strokeWidth=2;strokeColor=#0080F0;shadow=0;dashed=0;shape=mxgraph.ios7.icons.cloud;" parent="1" vertex="1">
          <mxGeometry x="412.5" y="240" width="200" height="120" as="geometry" />
        </mxCell>
        <mxCell id="hHs4LufjNupMnScNQm0d-14" value="" style="html=1;verticalLabelPosition=bottom;align=center;labelBackgroundColor=#ffffff;verticalAlign=top;strokeWidth=2;strokeColor=#0080F0;shadow=0;dashed=0;shape=mxgraph.ios7.icons.cloud;" parent="1" vertex="1">
          <mxGeometry x="522.5" y="280" width="150" height="90" as="geometry" />
        </mxCell>
        <mxCell id="hHs4LufjNupMnScNQm0d-17" value="&lt;font style=&quot;font-size: 18px;&quot;&gt;Singapore, Singapore&lt;br&gt;&lt;/font&gt;" style="rounded=1;whiteSpace=wrap;html=1;fillColor=none;strokeColor=none;" parent="1" vertex="1">
          <mxGeometry x="430" y="168" width="230" height="70" as="geometry" />
        </mxCell>
        <mxCell id="hHs4LufjNupMnScNQm0d-18" value="26%" style="rounded=1;whiteSpace=wrap;html=1;fillColor=none;strokeColor=none;" parent="1" vertex="1">
          <mxGeometry x="405" y="590" width="50" height="30" as="geometry" />
        </mxCell>
        <mxCell id="hHs4LufjNupMnScNQm0d-19" value="26%" style="rounded=1;whiteSpace=wrap;html=1;fillColor=none;strokeColor=none;arcSize=0;" parent="1" vertex="1">
          <mxGeometry x="490" y="590" width="50" height="30" as="geometry" />
        </mxCell>
        <mxCell id="hHs4LufjNupMnScNQm0d-20" value="26%" style="rounded=1;whiteSpace=wrap;html=1;fillColor=none;strokeColor=none;" parent="1" vertex="1">
          <mxGeometry x="570" y="590" width="50" height="30" as="geometry" />
        </mxCell>
        <mxCell id="hHs4LufjNupMnScNQm0d-21" value="26%" style="rounded=1;whiteSpace=wrap;html=1;fillColor=none;strokeColor=none;" parent="1" vertex="1">
          <mxGeometry x="655" y="590" width="50" height="30" as="geometry" />
        </mxCell>
        <mxCell id="hHs4LufjNupMnScNQm0d-24" value="27/3" style="rounded=1;whiteSpace=wrap;html=1;fillColor=none;strokeColor=none;" parent="1" vertex="1">
          <mxGeometry x="390" y="680" width="50" height="30" as="geometry" />
        </mxCell>
        <mxCell id="hHs4LufjNupMnScNQm0d-25" value="28/3" style="rounded=1;whiteSpace=wrap;html=1;fillColor=none;strokeColor=none;" parent="1" vertex="1">
          <mxGeometry x="480" y="680" width="50" height="30" as="geometry" />
        </mxCell>
        <mxCell id="hHs4LufjNupMnScNQm0d-26" value="29/3" style="rounded=1;whiteSpace=wrap;html=1;fillColor=none;strokeColor=none;" parent="1" vertex="1">
          <mxGeometry x="570" y="680" width="50" height="30" as="geometry" />
        </mxCell>
        <mxCell id="hHs4LufjNupMnScNQm0d-27" value="30/3" style="rounded=1;whiteSpace=wrap;html=1;fillColor=none;strokeColor=none;" parent="1" vertex="1">
          <mxGeometry x="660" y="680" width="50" height="30" as="geometry" />
        </mxCell>
        <mxCell id="hHs4LufjNupMnScNQm0d-28" value="&lt;font style=&quot;font-size: 42px;&quot;&gt;23.5&lt;/font&gt;" style="rounded=1;whiteSpace=wrap;html=1;fillColor=none;strokeColor=none;fontSize=42;fontStyle=1;shadow=0;" parent="1" vertex="1">
          <mxGeometry x="490" y="390" width="120" height="100" as="geometry" />
        </mxCell>
        <mxCell id="hHs4LufjNupMnScNQm0d-29" value="o" style="rounded=1;whiteSpace=wrap;html=1;fillColor=none;strokeColor=none;fontSize=17;" parent="1" vertex="1">
          <mxGeometry x="580" y="415" width="30" height="20" as="geometry" />
        </mxCell>
        <mxCell id="hHs4LufjNupMnScNQm0d-30" value="Cloudy" style="rounded=1;whiteSpace=wrap;html=1;fillColor=none;strokeColor=none;fontSize=17;" parent="1" vertex="1">
          <mxGeometry x="525" y="380" width="50" height="30" as="geometry" />
        </mxCell>
        <mxCell id="hHs4LufjNupMnScNQm0d-35" value="" style="html=1;verticalLabelPosition=bottom;align=center;labelBackgroundColor=#ffffff;verticalAlign=top;strokeWidth=2;strokeColor=#0080F0;shadow=0;dashed=0;shape=mxgraph.ios7.icons.cloud;" parent="1" vertex="1">
          <mxGeometry x="395" y="660" width="25" height="13.75" as="geometry" />
        </mxCell>
        <mxCell id="hHs4LufjNupMnScNQm0d-36" value="" style="html=1;verticalLabelPosition=bottom;align=center;labelBackgroundColor=#ffffff;verticalAlign=top;strokeWidth=2;strokeColor=#0080F0;shadow=0;dashed=0;shape=mxgraph.ios7.icons.cloud;" parent="1" vertex="1">
          <mxGeometry x="410" y="665" width="20" height="13.75" as="geometry" />
        </mxCell>
        <mxCell id="hHs4LufjNupMnScNQm0d-47" value="" style="html=1;verticalLabelPosition=bottom;align=center;labelBackgroundColor=#ffffff;verticalAlign=top;strokeWidth=2;strokeColor=#0080F0;shadow=0;dashed=0;shape=mxgraph.ios7.icons.cloud;" parent="1" vertex="1">
          <mxGeometry x="395" y="557.5" width="40" height="23.75" as="geometry" />
        </mxCell>
        <mxCell id="hHs4LufjNupMnScNQm0d-48" value="" style="html=1;verticalLabelPosition=bottom;align=center;labelBackgroundColor=#ffffff;verticalAlign=top;strokeWidth=2;strokeColor=#0080F0;shadow=0;dashed=0;shape=mxgraph.ios7.icons.cloud;" parent="1" vertex="1">
          <mxGeometry x="415" y="567.5" width="40" height="23.75" as="geometry" />
        </mxCell>
        <mxCell id="hHs4LufjNupMnScNQm0d-55" value="" style="html=1;verticalLabelPosition=bottom;align=center;labelBackgroundColor=#ffffff;verticalAlign=top;strokeWidth=2;strokeColor=#0080F0;shadow=0;dashed=0;shape=mxgraph.ios7.icons.cloud;" parent="1" vertex="1">
          <mxGeometry x="480" y="556.25" width="40" height="23.75" as="geometry" />
        </mxCell>
        <mxCell id="hHs4LufjNupMnScNQm0d-56" value="" style="html=1;verticalLabelPosition=bottom;align=center;labelBackgroundColor=#ffffff;verticalAlign=top;strokeWidth=2;strokeColor=#0080F0;shadow=0;dashed=0;shape=mxgraph.ios7.icons.cloud;" parent="1" vertex="1">
          <mxGeometry x="500" y="567.5" width="40" height="23.75" as="geometry" />
        </mxCell>
        <mxCell id="hHs4LufjNupMnScNQm0d-57" value="" style="html=1;verticalLabelPosition=bottom;align=center;labelBackgroundColor=#ffffff;verticalAlign=top;strokeWidth=2;strokeColor=#0080F0;shadow=0;dashed=0;shape=mxgraph.ios7.icons.cloud;" parent="1" vertex="1">
          <mxGeometry x="560" y="556.25" width="40" height="23.75" as="geometry" />
        </mxCell>
        <mxCell id="hHs4LufjNupMnScNQm0d-58" value="" style="html=1;verticalLabelPosition=bottom;align=center;labelBackgroundColor=#ffffff;verticalAlign=top;strokeWidth=2;strokeColor=#0080F0;shadow=0;dashed=0;shape=mxgraph.ios7.icons.cloud;" parent="1" vertex="1">
          <mxGeometry x="580" y="566.25" width="40" height="23.75" as="geometry" />
        </mxCell>
        <mxCell id="hHs4LufjNupMnScNQm0d-59" value="" style="html=1;verticalLabelPosition=bottom;align=center;labelBackgroundColor=#ffffff;verticalAlign=top;strokeWidth=2;strokeColor=#0080F0;shadow=0;dashed=0;shape=mxgraph.ios7.icons.cloud;" parent="1" vertex="1">
          <mxGeometry x="645" y="556.25" width="40" height="23.75" as="geometry" />
        </mxCell>
        <mxCell id="hHs4LufjNupMnScNQm0d-60" value="" style="html=1;verticalLabelPosition=bottom;align=center;labelBackgroundColor=#ffffff;verticalAlign=top;strokeWidth=2;strokeColor=#0080F0;shadow=0;dashed=0;shape=mxgraph.ios7.icons.cloud;" parent="1" vertex="1">
          <mxGeometry x="665" y="567.5" width="40" height="23.75" as="geometry" />
        </mxCell>
        <mxCell id="hHs4LufjNupMnScNQm0d-62" value="2:00 am" style="rounded=1;whiteSpace=wrap;html=1;fillColor=none;strokeColor=none;" parent="1" vertex="1">
          <mxGeometry x="400" y="530" width="50" height="30" as="geometry" />
        </mxCell>
        <mxCell id="hHs4LufjNupMnScNQm0d-63" value="3:00 am" style="rounded=1;whiteSpace=wrap;html=1;fillColor=none;strokeColor=none;" parent="1" vertex="1">
          <mxGeometry x="485" y="530" width="50" height="30" as="geometry" />
        </mxCell>
        <mxCell id="hHs4LufjNupMnScNQm0d-64" value="4:00 am" style="rounded=1;whiteSpace=wrap;html=1;fillColor=none;strokeColor=none;" parent="1" vertex="1">
          <mxGeometry x="565" y="530" width="50" height="30" as="geometry" />
        </mxCell>
        <mxCell id="hHs4LufjNupMnScNQm0d-65" value="5:00 am" style="rounded=1;whiteSpace=wrap;html=1;fillColor=none;strokeColor=none;" parent="1" vertex="1">
          <mxGeometry x="645" y="530" width="50" height="30" as="geometry" />
        </mxCell>
        <mxCell id="hHs4LufjNupMnScNQm0d-66" value="" style="verticalLabelPosition=bottom;shadow=0;dashed=0;align=center;html=1;verticalAlign=top;strokeWidth=1;shape=mxgraph.mockup.navigation.pageControl;fillColor=#999999;strokeColor=#ddeeff;" parent="1" vertex="1">
          <mxGeometry x="490" y="710" width="100" height="30" as="geometry" />
        </mxCell>
        <mxCell id="MCGKy7Pjw2WqAUfrQ6Lr-1" value="25% Humidity" style="rounded=1;whiteSpace=wrap;html=1;fillColor=none;strokeColor=none;fontSize=17;" parent="1" vertex="1">
          <mxGeometry x="535" y="490" width="180" height="30" as="geometry" />
        </mxCell>
        <mxCell id="MCGKy7Pjw2WqAUfrQ6Lr-6" value="" style="html=1;verticalLabelPosition=bottom;align=center;labelBackgroundColor=#ffffff;verticalAlign=top;strokeWidth=2;strokeColor=#0080F0;shadow=0;dashed=0;shape=mxgraph.ios7.icons.cloud;" parent="1" vertex="1">
          <mxGeometry x="487.5" y="660" width="25" height="13.75" as="geometry" />
        </mxCell>
        <mxCell id="MCGKy7Pjw2WqAUfrQ6Lr-7" value="" style="html=1;verticalLabelPosition=bottom;align=center;labelBackgroundColor=#ffffff;verticalAlign=top;strokeWidth=2;strokeColor=#0080F0;shadow=0;dashed=0;shape=mxgraph.ios7.icons.cloud;" parent="1" vertex="1">
          <mxGeometry x="502.5" y="665" width="20" height="13.75" as="geometry" />
        </mxCell>
        <mxCell id="MCGKy7Pjw2WqAUfrQ6Lr-8" value="" style="html=1;verticalLabelPosition=bottom;align=center;labelBackgroundColor=#ffffff;verticalAlign=top;strokeWidth=2;strokeColor=#0080F0;shadow=0;dashed=0;shape=mxgraph.ios7.icons.cloud;" parent="1" vertex="1">
          <mxGeometry x="577.5" y="661.25" width="25" height="13.75" as="geometry" />
        </mxCell>
        <mxCell id="MCGKy7Pjw2WqAUfrQ6Lr-9" value="" style="html=1;verticalLabelPosition=bottom;align=center;labelBackgroundColor=#ffffff;verticalAlign=top;strokeWidth=2;strokeColor=#0080F0;shadow=0;dashed=0;shape=mxgraph.ios7.icons.cloud;" parent="1" vertex="1">
          <mxGeometry x="592.5" y="666.25" width="20" height="13.75" as="geometry" />
        </mxCell>
        <mxCell id="MCGKy7Pjw2WqAUfrQ6Lr-10" value="" style="html=1;verticalLabelPosition=bottom;align=center;labelBackgroundColor=#ffffff;verticalAlign=top;strokeWidth=2;strokeColor=#0080F0;shadow=0;dashed=0;shape=mxgraph.ios7.icons.cloud;" parent="1" vertex="1">
          <mxGeometry x="667.5" y="661.25" width="25" height="13.75" as="geometry" />
        </mxCell>
        <mxCell id="MCGKy7Pjw2WqAUfrQ6Lr-11" value="" style="html=1;verticalLabelPosition=bottom;align=center;labelBackgroundColor=#ffffff;verticalAlign=top;strokeWidth=2;strokeColor=#0080F0;shadow=0;dashed=0;shape=mxgraph.ios7.icons.cloud;" parent="1" vertex="1">
          <mxGeometry x="682.5" y="666.25" width="20" height="13.75" as="geometry" />
        </mxCell>
        <mxCell id="6HBI_HqTiSLTPjPLvNzR-1" value="Menu" style="rounded=1;whiteSpace=wrap;html=1;fillColor=#cce5ff;strokeColor=#36393d;" vertex="1" parent="1">
          <mxGeometry x="385" y="120" width="340" height="40" as="geometry" />
        </mxCell>
      </root>
    </mxGraphModel>
  </diagram>
  <diagram name="Search-Result" id="E_aC41iqb4eUBrOD85P0">
    <mxGraphModel dx="1647" dy="888" grid="1" gridSize="10" guides="1" tooltips="1" connect="1" arrows="1" fold="1" page="1" pageScale="1" pageWidth="1100" pageHeight="850" background="none" math="0" shadow="0">
      <root>
        <mxCell id="GXbIx4g2P3PEarXSuLL_-0" />
        <mxCell id="GXbIx4g2P3PEarXSuLL_-1" parent="GXbIx4g2P3PEarXSuLL_-0" />
        <mxCell id="GXbIx4g2P3PEarXSuLL_-2" value="" style="rounded=0;whiteSpace=wrap;html=1;fillColor=#dae8fc;strokeColor=#6c8ebf;movable=0;resizable=0;rotatable=0;deletable=0;editable=0;locked=1;connectable=0;" parent="GXbIx4g2P3PEarXSuLL_-1" vertex="1">
          <mxGeometry x="350" y="90" width="400" height="660" as="geometry" />
        </mxCell>
        <mxCell id="GXbIx4g2P3PEarXSuLL_-3" value="" style="verticalLabelPosition=bottom;verticalAlign=top;html=1;shadow=0;dashed=0;strokeWidth=1;shape=mxgraph.android.phone2;strokeColor=#c0c0c0;" parent="GXbIx4g2P3PEarXSuLL_-1" vertex="1">
          <mxGeometry x="340" y="40" width="420" height="770" as="geometry" />
        </mxCell>
        <mxCell id="GXbIx4g2P3PEarXSuLL_-4" value="" style="rounded=1;whiteSpace=wrap;html=1;" parent="GXbIx4g2P3PEarXSuLL_-1" vertex="1">
          <mxGeometry x="380" y="530" width="340" height="90" as="geometry" />
        </mxCell>
        <mxCell id="GXbIx4g2P3PEarXSuLL_-5" value="" style="rounded=1;whiteSpace=wrap;html=1;" parent="GXbIx4g2P3PEarXSuLL_-1" vertex="1">
          <mxGeometry x="380" y="640" width="70" height="70" as="geometry" />
        </mxCell>
        <mxCell id="GXbIx4g2P3PEarXSuLL_-6" value="" style="rounded=1;whiteSpace=wrap;html=1;" parent="GXbIx4g2P3PEarXSuLL_-1" vertex="1">
          <mxGeometry x="470" y="640" width="70" height="70" as="geometry" />
        </mxCell>
        <mxCell id="GXbIx4g2P3PEarXSuLL_-7" value="" style="rounded=1;whiteSpace=wrap;html=1;" parent="GXbIx4g2P3PEarXSuLL_-1" vertex="1">
          <mxGeometry x="560" y="640" width="70" height="70" as="geometry" />
        </mxCell>
        <mxCell id="GXbIx4g2P3PEarXSuLL_-8" value="" style="rounded=1;whiteSpace=wrap;html=1;" parent="GXbIx4g2P3PEarXSuLL_-1" vertex="1">
          <mxGeometry x="650" y="640" width="70" height="70" as="geometry" />
        </mxCell>
        <mxCell id="GXbIx4g2P3PEarXSuLL_-9" value="26% Precipitation" style="rounded=1;whiteSpace=wrap;html=1;fillColor=none;strokeColor=none;fontSize=17;" parent="GXbIx4g2P3PEarXSuLL_-1" vertex="1">
          <mxGeometry x="385" y="490" width="180" height="30" as="geometry" />
        </mxCell>
        <mxCell id="GXbIx4g2P3PEarXSuLL_-10" value="`" style="html=1;verticalLabelPosition=bottom;align=center;labelBackgroundColor=#ffffff;verticalAlign=top;strokeWidth=2;strokeColor=#0080F0;shadow=0;dashed=0;shape=mxgraph.ios7.icons.cloud;" parent="GXbIx4g2P3PEarXSuLL_-1" vertex="1">
          <mxGeometry x="412.5" y="240" width="200" height="120" as="geometry" />
        </mxCell>
        <mxCell id="GXbIx4g2P3PEarXSuLL_-11" value="" style="html=1;verticalLabelPosition=bottom;align=center;labelBackgroundColor=#ffffff;verticalAlign=top;strokeWidth=2;strokeColor=#0080F0;shadow=0;dashed=0;shape=mxgraph.ios7.icons.cloud;" parent="GXbIx4g2P3PEarXSuLL_-1" vertex="1">
          <mxGeometry x="522.5" y="280" width="150" height="90" as="geometry" />
        </mxCell>
        <mxCell id="GXbIx4g2P3PEarXSuLL_-13" value="&lt;font style=&quot;font-size: 18px;&quot;&gt;Singapore, Singapore&lt;br&gt;&lt;/font&gt;" style="rounded=1;whiteSpace=wrap;html=1;fillColor=none;strokeColor=none;" parent="GXbIx4g2P3PEarXSuLL_-1" vertex="1">
          <mxGeometry x="430" y="168" width="230" height="70" as="geometry" />
        </mxCell>
        <mxCell id="GXbIx4g2P3PEarXSuLL_-14" value="26%" style="rounded=1;whiteSpace=wrap;html=1;fillColor=none;strokeColor=none;" parent="GXbIx4g2P3PEarXSuLL_-1" vertex="1">
          <mxGeometry x="405" y="590" width="50" height="30" as="geometry" />
        </mxCell>
        <mxCell id="GXbIx4g2P3PEarXSuLL_-15" value="26%" style="rounded=1;whiteSpace=wrap;html=1;fillColor=none;strokeColor=none;arcSize=0;" parent="GXbIx4g2P3PEarXSuLL_-1" vertex="1">
          <mxGeometry x="490" y="590" width="50" height="30" as="geometry" />
        </mxCell>
        <mxCell id="GXbIx4g2P3PEarXSuLL_-16" value="26%" style="rounded=1;whiteSpace=wrap;html=1;fillColor=none;strokeColor=none;" parent="GXbIx4g2P3PEarXSuLL_-1" vertex="1">
          <mxGeometry x="570" y="590" width="50" height="30" as="geometry" />
        </mxCell>
        <mxCell id="GXbIx4g2P3PEarXSuLL_-17" value="26%" style="rounded=1;whiteSpace=wrap;html=1;fillColor=none;strokeColor=none;" parent="GXbIx4g2P3PEarXSuLL_-1" vertex="1">
          <mxGeometry x="655" y="590" width="50" height="30" as="geometry" />
        </mxCell>
        <mxCell id="GXbIx4g2P3PEarXSuLL_-18" value="27/3" style="rounded=1;whiteSpace=wrap;html=1;fillColor=none;strokeColor=none;" parent="GXbIx4g2P3PEarXSuLL_-1" vertex="1">
          <mxGeometry x="390" y="680" width="50" height="30" as="geometry" />
        </mxCell>
        <mxCell id="GXbIx4g2P3PEarXSuLL_-19" value="28/3" style="rounded=1;whiteSpace=wrap;html=1;fillColor=none;strokeColor=none;" parent="GXbIx4g2P3PEarXSuLL_-1" vertex="1">
          <mxGeometry x="480" y="680" width="50" height="30" as="geometry" />
        </mxCell>
        <mxCell id="GXbIx4g2P3PEarXSuLL_-20" value="29/3" style="rounded=1;whiteSpace=wrap;html=1;fillColor=none;strokeColor=none;" parent="GXbIx4g2P3PEarXSuLL_-1" vertex="1">
          <mxGeometry x="570" y="680" width="50" height="30" as="geometry" />
        </mxCell>
        <mxCell id="GXbIx4g2P3PEarXSuLL_-21" value="30/3" style="rounded=1;whiteSpace=wrap;html=1;fillColor=none;strokeColor=none;" parent="GXbIx4g2P3PEarXSuLL_-1" vertex="1">
          <mxGeometry x="660" y="680" width="50" height="30" as="geometry" />
        </mxCell>
        <mxCell id="GXbIx4g2P3PEarXSuLL_-22" value="&lt;font style=&quot;font-size: 42px;&quot;&gt;23.5&lt;/font&gt;" style="rounded=1;whiteSpace=wrap;html=1;fillColor=none;strokeColor=none;fontSize=42;fontStyle=1;shadow=0;" parent="GXbIx4g2P3PEarXSuLL_-1" vertex="1">
          <mxGeometry x="490" y="390" width="120" height="100" as="geometry" />
        </mxCell>
        <mxCell id="GXbIx4g2P3PEarXSuLL_-23" value="o" style="rounded=1;whiteSpace=wrap;html=1;fillColor=none;strokeColor=none;fontSize=17;" parent="GXbIx4g2P3PEarXSuLL_-1" vertex="1">
          <mxGeometry x="580" y="415" width="30" height="20" as="geometry" />
        </mxCell>
        <mxCell id="GXbIx4g2P3PEarXSuLL_-24" value="Cloudy" style="rounded=1;whiteSpace=wrap;html=1;fillColor=none;strokeColor=none;fontSize=17;" parent="GXbIx4g2P3PEarXSuLL_-1" vertex="1">
          <mxGeometry x="525" y="380" width="50" height="30" as="geometry" />
        </mxCell>
        <mxCell id="GXbIx4g2P3PEarXSuLL_-25" value="" style="html=1;verticalLabelPosition=bottom;align=center;labelBackgroundColor=#ffffff;verticalAlign=top;strokeWidth=2;strokeColor=#0080F0;shadow=0;dashed=0;shape=mxgraph.ios7.icons.cloud;" parent="GXbIx4g2P3PEarXSuLL_-1" vertex="1">
          <mxGeometry x="395" y="660" width="25" height="13.75" as="geometry" />
        </mxCell>
        <mxCell id="GXbIx4g2P3PEarXSuLL_-26" value="" style="html=1;verticalLabelPosition=bottom;align=center;labelBackgroundColor=#ffffff;verticalAlign=top;strokeWidth=2;strokeColor=#0080F0;shadow=0;dashed=0;shape=mxgraph.ios7.icons.cloud;" parent="GXbIx4g2P3PEarXSuLL_-1" vertex="1">
          <mxGeometry x="410" y="665" width="20" height="13.75" as="geometry" />
        </mxCell>
        <mxCell id="GXbIx4g2P3PEarXSuLL_-27" value="" style="html=1;verticalLabelPosition=bottom;align=center;labelBackgroundColor=#ffffff;verticalAlign=top;strokeWidth=2;strokeColor=#0080F0;shadow=0;dashed=0;shape=mxgraph.ios7.icons.cloud;" parent="GXbIx4g2P3PEarXSuLL_-1" vertex="1">
          <mxGeometry x="395" y="557.5" width="40" height="23.75" as="geometry" />
        </mxCell>
        <mxCell id="GXbIx4g2P3PEarXSuLL_-28" value="" style="html=1;verticalLabelPosition=bottom;align=center;labelBackgroundColor=#ffffff;verticalAlign=top;strokeWidth=2;strokeColor=#0080F0;shadow=0;dashed=0;shape=mxgraph.ios7.icons.cloud;" parent="GXbIx4g2P3PEarXSuLL_-1" vertex="1">
          <mxGeometry x="415" y="567.5" width="40" height="23.75" as="geometry" />
        </mxCell>
        <mxCell id="GXbIx4g2P3PEarXSuLL_-29" value="" style="html=1;verticalLabelPosition=bottom;align=center;labelBackgroundColor=#ffffff;verticalAlign=top;strokeWidth=2;strokeColor=#0080F0;shadow=0;dashed=0;shape=mxgraph.ios7.icons.cloud;" parent="GXbIx4g2P3PEarXSuLL_-1" vertex="1">
          <mxGeometry x="480" y="556.25" width="40" height="23.75" as="geometry" />
        </mxCell>
        <mxCell id="GXbIx4g2P3PEarXSuLL_-30" value="" style="html=1;verticalLabelPosition=bottom;align=center;labelBackgroundColor=#ffffff;verticalAlign=top;strokeWidth=2;strokeColor=#0080F0;shadow=0;dashed=0;shape=mxgraph.ios7.icons.cloud;" parent="GXbIx4g2P3PEarXSuLL_-1" vertex="1">
          <mxGeometry x="500" y="567.5" width="40" height="23.75" as="geometry" />
        </mxCell>
        <mxCell id="GXbIx4g2P3PEarXSuLL_-31" value="" style="html=1;verticalLabelPosition=bottom;align=center;labelBackgroundColor=#ffffff;verticalAlign=top;strokeWidth=2;strokeColor=#0080F0;shadow=0;dashed=0;shape=mxgraph.ios7.icons.cloud;" parent="GXbIx4g2P3PEarXSuLL_-1" vertex="1">
          <mxGeometry x="560" y="556.25" width="40" height="23.75" as="geometry" />
        </mxCell>
        <mxCell id="GXbIx4g2P3PEarXSuLL_-32" value="" style="html=1;verticalLabelPosition=bottom;align=center;labelBackgroundColor=#ffffff;verticalAlign=top;strokeWidth=2;strokeColor=#0080F0;shadow=0;dashed=0;shape=mxgraph.ios7.icons.cloud;" parent="GXbIx4g2P3PEarXSuLL_-1" vertex="1">
          <mxGeometry x="580" y="566.25" width="40" height="23.75" as="geometry" />
        </mxCell>
        <mxCell id="GXbIx4g2P3PEarXSuLL_-33" value="" style="html=1;verticalLabelPosition=bottom;align=center;labelBackgroundColor=#ffffff;verticalAlign=top;strokeWidth=2;strokeColor=#0080F0;shadow=0;dashed=0;shape=mxgraph.ios7.icons.cloud;" parent="GXbIx4g2P3PEarXSuLL_-1" vertex="1">
          <mxGeometry x="645" y="556.25" width="40" height="23.75" as="geometry" />
        </mxCell>
        <mxCell id="GXbIx4g2P3PEarXSuLL_-34" value="" style="html=1;verticalLabelPosition=bottom;align=center;labelBackgroundColor=#ffffff;verticalAlign=top;strokeWidth=2;strokeColor=#0080F0;shadow=0;dashed=0;shape=mxgraph.ios7.icons.cloud;" parent="GXbIx4g2P3PEarXSuLL_-1" vertex="1">
          <mxGeometry x="665" y="567.5" width="40" height="23.75" as="geometry" />
        </mxCell>
        <mxCell id="GXbIx4g2P3PEarXSuLL_-35" value="2:00 am" style="rounded=1;whiteSpace=wrap;html=1;fillColor=none;strokeColor=none;" parent="GXbIx4g2P3PEarXSuLL_-1" vertex="1">
          <mxGeometry x="400" y="530" width="50" height="30" as="geometry" />
        </mxCell>
        <mxCell id="GXbIx4g2P3PEarXSuLL_-36" value="4:00 am" style="rounded=1;whiteSpace=wrap;html=1;fillColor=none;strokeColor=none;" parent="GXbIx4g2P3PEarXSuLL_-1" vertex="1">
          <mxGeometry x="485" y="530" width="50" height="30" as="geometry" />
        </mxCell>
        <mxCell id="GXbIx4g2P3PEarXSuLL_-37" value="6:00 am" style="rounded=1;whiteSpace=wrap;html=1;fillColor=none;strokeColor=none;" parent="GXbIx4g2P3PEarXSuLL_-1" vertex="1">
          <mxGeometry x="565" y="530" width="50" height="30" as="geometry" />
        </mxCell>
        <mxCell id="GXbIx4g2P3PEarXSuLL_-38" value="8:00 am" style="rounded=1;whiteSpace=wrap;html=1;fillColor=none;strokeColor=none;" parent="GXbIx4g2P3PEarXSuLL_-1" vertex="1">
          <mxGeometry x="645" y="530" width="50" height="30" as="geometry" />
        </mxCell>
        <mxCell id="GXbIx4g2P3PEarXSuLL_-39" value="" style="verticalLabelPosition=bottom;shadow=0;dashed=0;align=center;html=1;verticalAlign=top;strokeWidth=1;shape=mxgraph.mockup.navigation.pageControl;fillColor=#999999;strokeColor=#ddeeff;" parent="GXbIx4g2P3PEarXSuLL_-1" vertex="1">
          <mxGeometry x="490" y="710" width="100" height="30" as="geometry" />
        </mxCell>
        <mxCell id="GXbIx4g2P3PEarXSuLL_-40" value="25% Humidity" style="rounded=1;whiteSpace=wrap;html=1;fillColor=none;strokeColor=none;fontSize=17;" parent="GXbIx4g2P3PEarXSuLL_-1" vertex="1">
          <mxGeometry x="535" y="490" width="180" height="30" as="geometry" />
        </mxCell>
        <mxCell id="GXbIx4g2P3PEarXSuLL_-41" value="" style="html=1;verticalLabelPosition=bottom;align=center;labelBackgroundColor=#ffffff;verticalAlign=top;strokeWidth=2;strokeColor=#0080F0;shadow=0;dashed=0;shape=mxgraph.ios7.icons.cloud;" parent="GXbIx4g2P3PEarXSuLL_-1" vertex="1">
          <mxGeometry x="487.5" y="660" width="25" height="13.75" as="geometry" />
        </mxCell>
        <mxCell id="GXbIx4g2P3PEarXSuLL_-42" value="" style="html=1;verticalLabelPosition=bottom;align=center;labelBackgroundColor=#ffffff;verticalAlign=top;strokeWidth=2;strokeColor=#0080F0;shadow=0;dashed=0;shape=mxgraph.ios7.icons.cloud;" parent="GXbIx4g2P3PEarXSuLL_-1" vertex="1">
          <mxGeometry x="502.5" y="665" width="20" height="13.75" as="geometry" />
        </mxCell>
        <mxCell id="GXbIx4g2P3PEarXSuLL_-43" value="" style="html=1;verticalLabelPosition=bottom;align=center;labelBackgroundColor=#ffffff;verticalAlign=top;strokeWidth=2;strokeColor=#0080F0;shadow=0;dashed=0;shape=mxgraph.ios7.icons.cloud;" parent="GXbIx4g2P3PEarXSuLL_-1" vertex="1">
          <mxGeometry x="577.5" y="661.25" width="25" height="13.75" as="geometry" />
        </mxCell>
        <mxCell id="GXbIx4g2P3PEarXSuLL_-44" value="" style="html=1;verticalLabelPosition=bottom;align=center;labelBackgroundColor=#ffffff;verticalAlign=top;strokeWidth=2;strokeColor=#0080F0;shadow=0;dashed=0;shape=mxgraph.ios7.icons.cloud;" parent="GXbIx4g2P3PEarXSuLL_-1" vertex="1">
          <mxGeometry x="592.5" y="666.25" width="20" height="13.75" as="geometry" />
        </mxCell>
        <mxCell id="GXbIx4g2P3PEarXSuLL_-45" value="" style="html=1;verticalLabelPosition=bottom;align=center;labelBackgroundColor=#ffffff;verticalAlign=top;strokeWidth=2;strokeColor=#0080F0;shadow=0;dashed=0;shape=mxgraph.ios7.icons.cloud;" parent="GXbIx4g2P3PEarXSuLL_-1" vertex="1">
          <mxGeometry x="667.5" y="661.25" width="25" height="13.75" as="geometry" />
        </mxCell>
        <mxCell id="GXbIx4g2P3PEarXSuLL_-46" value="" style="html=1;verticalLabelPosition=bottom;align=center;labelBackgroundColor=#ffffff;verticalAlign=top;strokeWidth=2;strokeColor=#0080F0;shadow=0;dashed=0;shape=mxgraph.ios7.icons.cloud;" parent="GXbIx4g2P3PEarXSuLL_-1" vertex="1">
          <mxGeometry x="682.5" y="666.25" width="20" height="13.75" as="geometry" />
        </mxCell>
        <mxCell id="XbWPnIM2lv9mopswkCb5-0" value="Favourite" style="rounded=1;whiteSpace=wrap;html=1;fillColor=#cce5ff;strokeColor=#36393d;" parent="GXbIx4g2P3PEarXSuLL_-1" vertex="1">
          <mxGeometry x="385" y="128" width="340" height="40" as="geometry" />
        </mxCell>
      </root>
    </mxGraphModel>
  </diagram>
  <diagram name="Menu" id="zuTe-WPQdomzDRPI7Hk-">
    <mxGraphModel dx="1647" dy="888" grid="1" gridSize="10" guides="1" tooltips="1" connect="1" arrows="1" fold="1" page="1" pageScale="1" pageWidth="1100" pageHeight="850" background="none" math="0" shadow="0">
      <root>
        <mxCell id="Z8gL01nHENGZ95oYNPEs-0" />
        <mxCell id="Z8gL01nHENGZ95oYNPEs-1" parent="Z8gL01nHENGZ95oYNPEs-0" />
        <mxCell id="Z8gL01nHENGZ95oYNPEs-2" value="" style="rounded=0;whiteSpace=wrap;html=1;fillColor=#dae8fc;strokeColor=#6c8ebf;movable=0;resizable=0;rotatable=0;deletable=0;editable=0;locked=1;connectable=0;" vertex="1" parent="Z8gL01nHENGZ95oYNPEs-1">
          <mxGeometry x="350" y="90" width="400" height="660" as="geometry" />
        </mxCell>
        <mxCell id="Z8gL01nHENGZ95oYNPEs-3" value="" style="verticalLabelPosition=bottom;verticalAlign=top;html=1;shadow=0;dashed=0;strokeWidth=1;shape=mxgraph.android.phone2;strokeColor=#c0c0c0;" vertex="1" parent="Z8gL01nHENGZ95oYNPEs-1">
          <mxGeometry x="340" y="40" width="420" height="770" as="geometry" />
        </mxCell>
        <mxCell id="Z8gL01nHENGZ95oYNPEs-46" value="Input Location" style="rounded=1;whiteSpace=wrap;html=1;arcSize=12;" vertex="1" parent="Z8gL01nHENGZ95oYNPEs-1">
          <mxGeometry x="370" y="190" width="262.5" height="48" as="geometry" />
        </mxCell>
        <mxCell id="nzXh2U1WoF1w8nzBLAsI-1" value="Search" style="rounded=1;whiteSpace=wrap;html=1;arcSize=12;fillColor=#dae8fc;gradientColor=#7ea6e0;strokeColor=#6c8ebf;" vertex="1" parent="Z8gL01nHENGZ95oYNPEs-1">
          <mxGeometry x="640" y="190" width="90" height="48" as="geometry" />
        </mxCell>
        <mxCell id="nzXh2U1WoF1w8nzBLAsI-2" value="Favourites" style="rounded=1;whiteSpace=wrap;html=1;arcSize=12;fillColor=#f5f5f5;strokeColor=#666666;fontColor=#333333;" vertex="1" parent="Z8gL01nHENGZ95oYNPEs-1">
          <mxGeometry x="370" y="260" width="360" height="48" as="geometry" />
        </mxCell>
      </root>
    </mxGraphModel>
  </diagram>
  <diagram name="Copy of Menu" id="sKZDQ_1zTYmsnTPEuztD">
    <mxGraphModel dx="1647" dy="888" grid="1" gridSize="10" guides="1" tooltips="1" connect="1" arrows="1" fold="1" page="1" pageScale="1" pageWidth="1100" pageHeight="850" background="none" math="0" shadow="0">
      <root>
        <mxCell id="-OQCOGScG4zQ7z3iY2a6-0" />
        <mxCell id="-OQCOGScG4zQ7z3iY2a6-1" parent="-OQCOGScG4zQ7z3iY2a6-0" />
        <mxCell id="-OQCOGScG4zQ7z3iY2a6-2" value="" style="rounded=0;whiteSpace=wrap;html=1;fillColor=#dae8fc;strokeColor=#6c8ebf;movable=0;resizable=0;rotatable=0;deletable=0;editable=0;locked=1;connectable=0;" vertex="1" parent="-OQCOGScG4zQ7z3iY2a6-1">
          <mxGeometry x="350" y="90" width="400" height="660" as="geometry" />
        </mxCell>
        <mxCell id="-OQCOGScG4zQ7z3iY2a6-3" value="" style="verticalLabelPosition=bottom;verticalAlign=top;html=1;shadow=0;dashed=0;strokeWidth=1;shape=mxgraph.android.phone2;strokeColor=#c0c0c0;" vertex="1" parent="-OQCOGScG4zQ7z3iY2a6-1">
          <mxGeometry x="340" y="40" width="420" height="770" as="geometry" />
        </mxCell>
        <mxCell id="-OQCOGScG4zQ7z3iY2a6-5" value="Delete" style="rounded=1;whiteSpace=wrap;html=1;arcSize=12;fillColor=#9C5C5C;strokeColor=none;fontColor=#ffffff;" vertex="1" parent="-OQCOGScG4zQ7z3iY2a6-1">
          <mxGeometry x="660" y="200" width="70" height="38" as="geometry" />
        </mxCell>
        <mxCell id="-OQCOGScG4zQ7z3iY2a6-6" value="Location 1" style="rounded=1;whiteSpace=wrap;html=1;arcSize=12;fillColor=#f5f5f5;strokeColor=#666666;fontColor=#333333;" vertex="1" parent="-OQCOGScG4zQ7z3iY2a6-1">
          <mxGeometry x="370" y="191.5" width="260" height="55" as="geometry" />
        </mxCell>
        <mxCell id="Q3YBQ5nDZvBawrOcv7D--3" value="Location 2" style="rounded=1;whiteSpace=wrap;html=1;arcSize=12;fillColor=#f5f5f5;strokeColor=#666666;fontColor=#333333;" vertex="1" parent="-OQCOGScG4zQ7z3iY2a6-1">
          <mxGeometry x="370" y="260" width="260" height="55" as="geometry" />
        </mxCell>
        <mxCell id="Q3YBQ5nDZvBawrOcv7D--5" value="Location 3" style="rounded=1;whiteSpace=wrap;html=1;arcSize=12;fillColor=#f5f5f5;strokeColor=#666666;fontColor=#333333;" vertex="1" parent="-OQCOGScG4zQ7z3iY2a6-1">
          <mxGeometry x="370" y="330" width="260" height="55" as="geometry" />
        </mxCell>
        <mxCell id="Q3YBQ5nDZvBawrOcv7D--7" value="Delete" style="rounded=1;whiteSpace=wrap;html=1;arcSize=12;fillColor=#9C5C5C;strokeColor=none;fontColor=#ffffff;" vertex="1" parent="-OQCOGScG4zQ7z3iY2a6-1">
          <mxGeometry x="660" y="268.5" width="70" height="38" as="geometry" />
        </mxCell>
        <mxCell id="Q3YBQ5nDZvBawrOcv7D--8" value="Delete" style="rounded=1;whiteSpace=wrap;html=1;arcSize=12;fillColor=#9C5C5C;strokeColor=none;fontColor=#ffffff;" vertex="1" parent="-OQCOGScG4zQ7z3iY2a6-1">
          <mxGeometry x="660" y="338.5" width="70" height="38" as="geometry" />
        </mxCell>
      </root>
    </mxGraphModel>
  </diagram>
</mxfile>
